<?xml version="1.0" encoding="utf-8"?>
<svg xmlns="http://www.w3.org/2000/svg">

    <!-- Copyright 2018-2024 Tabler (https://tabler.io/) - Licensed under MIT -->
    <defs>
        <symbol id="copy" class="icon"
                viewBox="0 0 24 24" stroke-width="1.5" stroke="currentColor" fill="none"
                stroke-linecap="round" stroke-linejoin="round">
            <path stroke="none" d="M0 0h24v24H0z" fill="none"/>
            <path d="M7 7m0 2.667a2.667 2.667 0 0 1 2.667 -2.667h8.666a2.667 2.667 0 0 1 2.667 2.667v8.666a2.667 2.667 0 0 1 -2.667 2.667h-8.666a2.667 2.667 0 0 1 -2.667 -2.667z"/>
            <path d="M4.012 16.737a2.005 2.005 0 0 1 -1.012 -1.737v-10c0 -1.1 .9 -2 2 -2h10c.75 0 1.158 .385 1.5 1"/>
        </symbol>
        <symbol id="github" class="icon"
                viewBox="0 0 24 24" stroke-width="2" stroke="currentColor" fill="none"
                stroke-linecap="round" stroke-linejoin="round">
            <path stroke="none" d="M0 0h24v24H0z" fill="none"/>
            <path d="M9 19c-4.3 1.4 -4.3 -2.5 -6 -3m12 5v-3.5c0 -1 .1 -1.4 -.5 -2c2.8 -.3 5.5 -1.4 5.5 -6a4.6 4.6 0 0 0 -1.3 -3.2a4.2 4.2 0 0 0 -.1 -3.2s-1.1 -.3 -3.5 1.3a12.3 12.3 0 0 0 -6.2 0c-2.4 -1.6 -3.5 -1.3 -3.5 -1.3a4.2 4.2 0 0 0 -.1 3.2a4.6 4.6 0 0 0 -1.3 3.2c0 4.6 2.7 5.7 5.5 6c-.6 .6 -.6 1.2 -.5 2v3.5"/>
        </symbol>
        <symbol id="sun" class="icon"
                viewBox="0 0 24 24" stroke-width="2"
                stroke="currentColor" fill="none" stroke-linecap="round"
                stroke-linejoin="round">
            <path stroke="none" d="M0 0h24v24H0z" fill="none"/>
            <path d="M12 12m-4 0a4 4 0 1 0 8 0a4 4 0 1 0 -8 0"/>
            <path d="M3 12h1m8 -9v1m8 8h1m-9 8v1m-6.4 -15.4l.7 .7m12.1 -.7l-.7 .7m0 11.4l.7 .7m-12.1 -.7l-.7 .7"/>
        </symbol>
        <svg id="moon" class="icon"
             viewBox="0 0 24 24" stroke-width="2" stroke="currentColor" fill="none"
             stroke-linecap="round" stroke-linejoin="round">
            <path stroke="none" d="M0 0h24v24H0z" fill="none"/>
            <path d="M12 3c.132 0 .263 0 .393 0a7.5 7.5 0 0 0 7.92 12.446a9 9 0 1 1 -8.313 -12.454z"/>
        </svg>
        <svg id="file-upload" class="icon"
             viewBox="0 0 24 24" fill="none" stroke="currentColor" stroke-width="1"
             stroke-linecap="round" stroke-linejoin="round">
            <path stroke="none" d="M0 0h24v24H0z" fill="none"/>
            <path d="M14 3v4a1 1 0 0 0 1 1h4"/>
            <path d="M17 21h-10a2 2 0 0 1 -2 -2v-14a2 2 0 0 1 2 -2h7l5 5v11a2 2 0 0 1 -2 2z"/>
            <path d="M12 11v6"/>
            <path d="M9.5 13.5l2.5 -2.5l2.5 2.5"/>
        </svg>
        <svg id="file-text" class="icon"
             viewBox="0 0 24 24" fill="none" stroke="currentColor" stroke-width="1"
             stroke-linecap="round" stroke-linejoin="round">
            <path stroke="none" d="M0 0h24v24H0z" fill="none"/>
            <path d="M14 3v4a1 1 0 0 0 1 1h4"/>
            <path d="M17 21h-10a2 2 0 0 1 -2 -2v-14a2 2 0 0 1 2 -2h7l5 5v11a2 2 0 0 1 -2 2z"/>
            <path d="M9 9l1 0"/>
            <path d="M9 13l6 0"/>
            <path d="M9 17l6 0"/>
        </svg>
        <svg id="sad" class="icon"
             viewBox="0 0 24 24" fill="none" stroke="currentColor" stroke-width="1"
             stroke-linecap="round" stroke-linejoin="round">
            <path stroke="none" d="M0 0h24v24H0z" fill="none"/>
            <path d="M12 12m-9 0a9 9 0 1 0 18 0a9 9 0 1 0 -18 0"/>
            <path d="M9 10l.01 0"/>
            <path d="M15 10l.01 0"/>
            <path d="M9.5 15.25a3.5 3.5 0 0 1 5 0"/>
        </svg>
    </defs>

</svg>
